<svg width="151" height="100" viewBox="0 0 151 100" fill="none" xmlns="http://www.w3.org/2000/svg">
<g clip-path="url(#clip0_759_3885)">
<path d="M145.098 66.9219C144.007 68.113 142.655 68.9998 141.188 69.6883H141.186C141.048 69.7537 140.91 69.8175 140.77 69.8776H140.768L140.766 69.8794L140.765 69.8776H140.763L140.763 69.8783L140.762 69.8789L140.762 69.8793L140.761 69.8794H140.759L140.758 69.8776C140.756 69.8794 140.756 69.8794 140.754 69.8776L140.752 69.8794L140.751 69.8776H140.749C140.747 69.8794 140.747 69.8794 140.745 69.8776H140.743C139.761 70.3024 138.753 70.6631 137.724 70.9573C131.674 72.6736 125.315 73.0057 119.12 71.929C119.001 71.9077 118.884 71.8865 118.766 71.8652V57.5095C118.882 57.4599 119.001 57.4104 119.12 57.3626C119.893 57.0422 120.676 56.7478 121.468 56.4794C122.608 56.09 123.764 55.7561 124.936 55.4776C128.759 54.5524 132.703 54.2335 136.625 54.5325C137.338 54.5856 138.05 54.6623 138.759 54.7626C140.244 54.9697 141.802 55.3307 143.172 55.9573H143.174C143.374 56.0511 143.57 56.1484 143.765 56.2529C144.983 56.913 146.009 57.821 146.636 59.0653C146.861 59.5121 147.023 59.988 147.117 60.4794V60.483C147.153 60.6529 147.177 60.8245 147.197 60.9945C147.42 63.09 146.551 65.3325 145.098 66.9219Z" fill="#F2F2F2"/>
<path d="M147.197 60.9947C147.179 60.999 147.162 61.0014 147.144 61.0018C144.112 61.1345 141.084 61.3316 138.06 61.5929H138.055C138.042 61.5947 138.032 61.5947 138.02 61.5965C134.915 61.8655 131.817 62.2024 128.725 62.6071C128.594 62.6248 128.465 62.6425 128.336 62.6584C126.198 62.9434 124.064 63.2596 121.934 63.6071C120.994 63.7611 120.056 63.9216 119.12 64.0885C119.001 64.1098 118.884 64.1292 118.766 64.1522V63.6159C118.884 63.5929 119.003 63.5735 119.12 63.5522C122.238 63 125.368 62.518 128.508 62.1062C129.297 62 130.088 61.8997 130.879 61.8053C133.166 61.5292 135.456 61.2909 137.75 61.0903C137.919 61.0761 138.085 61.062 138.253 61.0478C141.189 60.7982 144.13 60.6089 147.075 60.4797C147.089 60.479 147.103 60.4802 147.117 60.4832C147.4 60.508 147.461 60.9328 147.197 60.9947Z" fill="white"/>
<path d="M140.9 69.3561C137.123 69.3838 133.402 67.7823 130.73 65.1314C129.976 64.3806 129.312 63.5449 128.751 62.6411C128.571 62.3523 128.149 62.6708 128.328 62.9571C130.403 66.2847 133.859 68.655 137.669 69.5266C138.752 69.7718 139.859 69.8902 140.968 69.8795C141.307 69.877 141.237 69.3536 140.9 69.3561Z" fill="white"/>
<path d="M124.936 55.4775C124.92 55.5273 124.891 55.5719 124.852 55.607C124.813 55.6421 124.766 55.6664 124.715 55.6775C123.849 55.9043 123.013 56.231 122.222 56.651C121.069 57.2604 120.021 58.0523 119.12 58.9961C119.072 59.0439 119.026 59.0917 118.982 59.1413C118.907 59.2191 118.836 59.2988 118.766 59.3802V58.6085C118.879 58.4882 118.998 58.3696 119.12 58.2563C119.831 57.5751 120.619 56.9788 121.468 56.4793C122.608 56.0899 123.764 55.756 124.936 55.4775Z" fill="white"/>
<path d="M143.485 55.8178C141.082 56.8505 139.072 58.6229 137.746 60.8772C137.72 60.9417 137.719 61.0142 137.746 61.079C137.772 61.1437 137.823 61.1955 137.887 61.2231C137.951 61.2486 138.023 61.2483 138.088 61.2221C138.152 61.196 138.204 61.1461 138.233 61.0828C139.498 58.9536 141.406 57.2813 143.683 56.3069C143.996 56.1734 143.798 55.6841 143.485 55.8178Z" fill="white"/>
<path d="M150.728 40.7855C150.317 42.3466 149.53 43.7607 148.551 45.051L148.549 45.0528C148.459 45.1731 148.365 45.2952 148.268 45.412V45.4138C147.588 46.251 146.854 47.0427 146.071 47.7837C143.256 50.4667 140.075 52.7386 136.625 54.5324C131.196 57.3678 125.129 59.0439 119.12 59.1395C119.074 59.1413 119.028 59.1413 118.982 59.1413C118.909 59.143 118.836 59.143 118.766 59.143V51.0988C118.881 50.8793 118.999 50.6598 119.12 50.4421C120.681 47.6323 122.586 45.0272 124.789 42.6864C124.842 42.628 124.897 42.5696 124.952 42.5129C125.78 41.6386 126.648 40.8061 127.557 40.0156C131.053 36.9424 135.092 34.5502 139.467 32.9625C140.878 32.4563 142.425 32.051 143.929 31.9713C144.151 31.959 144.37 31.9536 144.591 31.9554C145.977 31.9749 147.307 32.3023 148.441 33.1129C148.847 33.4047 149.212 33.7507 149.524 34.1413C149.634 34.2775 149.735 34.4174 149.832 34.5607V34.5625C151.004 36.3147 151.277 38.7023 150.728 40.7855Z" fill="#F2F2F2"/>
<path d="M149.832 34.5612V34.563C149.819 34.5744 149.805 34.5845 149.79 34.5931C147.17 36.117 144.584 37.6963 142.03 39.3311C142.027 39.3329 142.025 39.3347 142.021 39.3364C142.011 39.3436 142.001 39.35 141.99 39.3559C139.365 41.0373 136.777 42.7754 134.226 44.5701C134.12 44.6444 134.012 44.7205 133.904 44.7966C132.143 46.0408 130.4 47.3116 128.676 48.609C125.419 51.0621 122.234 53.606 119.12 56.2408C119.001 56.34 118.884 56.4408 118.766 56.5417V55.8532C118.882 55.7524 119.001 55.6515 119.12 55.5523C120.313 54.5453 121.516 53.5524 122.73 52.5736C123.093 52.2816 123.458 51.9895 123.822 51.701C127.062 49.1223 130.373 46.6397 133.757 44.2532H133.759C134.425 43.7842 135.091 43.3193 135.759 42.8585C137.657 41.5523 139.575 40.2774 141.515 39.0338C141.655 38.9435 141.797 38.8532 141.938 38.763C144.422 37.1771 146.937 35.6432 149.485 34.1612C149.498 34.1536 149.511 34.1471 149.524 34.1417C149.79 34.0355 150.039 34.386 149.832 34.5612Z" fill="white"/>
<path d="M148.142 44.8906C144.81 46.6696 140.77 46.9799 137.173 45.8734C136.157 45.5586 135.18 45.1271 134.263 44.5876C133.97 44.4155 133.744 44.8932 134.036 45.0638C137.419 47.0468 141.581 47.5404 145.36 46.5423C146.432 46.2567 147.467 45.8474 148.445 45.3226C148.744 45.1631 148.438 44.7321 148.142 44.8906Z" fill="white"/>
<path d="M123.212 51.3664C123.047 50.4399 122.991 49.4973 123.044 48.5577C123.163 46.4148 123.819 44.3363 124.952 42.5134C125.781 41.6393 126.65 40.8067 127.558 40.0156C127.566 40.0674 127.561 40.1204 127.543 40.1696C127.525 40.2188 127.494 40.2624 127.454 40.2961C126.793 40.8991 126.205 41.5767 125.7 42.3152C123.896 44.947 123.192 48.1793 123.738 51.3227C123.747 51.3583 123.747 51.3956 123.737 51.431C123.727 51.4665 123.708 51.4988 123.683 51.5249C123.645 51.5579 123.599 51.5804 123.55 51.5901C123.5 51.5999 123.45 51.5966 123.402 51.5806C123.354 51.5646 123.312 51.5364 123.279 51.4988C123.245 51.4612 123.222 51.4156 123.212 51.3664Z" fill="white"/>
<path d="M144.141 31.7016C142.493 33.7321 141.536 36.2355 141.41 38.8475C141.416 38.9171 141.449 38.9815 141.503 39.0266C141.556 39.0717 141.625 39.094 141.695 39.0886C141.764 39.0812 141.827 39.0475 141.872 38.9944C141.917 38.9414 141.94 38.8731 141.936 38.8037C142.067 36.3306 142.98 33.963 144.544 32.0425C144.759 31.7791 144.356 31.4377 144.141 31.7016Z" fill="white"/>
<path d="M125.812 37.5164V37.5182C125.8 37.6704 125.785 37.8209 125.769 37.9713V37.9748C125.646 39.0457 125.454 40.1075 125.194 41.1536C125.07 41.6669 124.936 42.1766 124.789 42.6863C124.771 42.7518 124.752 42.8173 124.732 42.881V42.8828C124.3 44.3653 123.783 45.8219 123.185 47.2456C122.085 49.8668 120.723 52.3703 119.12 54.7182C119.005 54.8899 118.886 55.0616 118.766 55.2315V27.5147C118.884 27.5076 119.001 27.5076 119.12 27.5111C119.176 27.5111 119.233 27.5129 119.29 27.5164C119.789 27.5427 120.282 27.6386 120.755 27.8014C120.922 27.8563 121.083 27.9182 121.242 27.9872C123.173 28.8332 124.69 30.6987 125.348 32.7501C125.842 34.2863 125.941 35.9023 125.812 37.5164Z" fill="#F2F2F2"/>
<path d="M121.242 27.9878C121.238 28.0052 121.231 28.0219 121.222 28.0374C120.506 29.4303 119.805 30.8303 119.12 32.2374C119.001 32.4799 118.882 32.7241 118.766 32.9666V31.7631C118.882 31.5223 119 31.2816 119.12 31.0409C119.649 29.9684 120.187 28.9005 120.734 27.8374C120.74 27.825 120.747 27.8131 120.755 27.802C120.918 27.5684 121.321 27.7277 121.242 27.9878Z" fill="white"/>
<path d="M125.869 37.8014C125.837 37.8581 125.805 37.9147 125.769 37.9713C125.25 38.877 124.631 39.7223 123.925 40.4917C122.569 41.9628 120.936 43.1519 119.12 43.9908C119.003 44.0474 118.884 44.1005 118.766 44.1501V43.5749C118.884 43.5218 119.003 43.4669 119.12 43.4103C121.749 42.1562 123.933 40.1297 125.38 37.6014C125.401 37.5653 125.429 37.5341 125.463 37.51C125.497 37.4858 125.536 37.4692 125.577 37.4613C125.618 37.4534 125.66 37.4544 125.701 37.4642C125.741 37.4741 125.779 37.4925 125.812 37.5182C125.834 37.5331 125.853 37.5522 125.868 37.5745C125.883 37.5968 125.894 37.6218 125.899 37.6481C125.904 37.6744 125.904 37.7015 125.899 37.7278C125.894 37.7541 125.883 37.7791 125.869 37.8014Z" fill="white"/>
<path d="M119.12 5.84071V19.292H118.766V19.1487H0.353996V19.292H0V5.84071C0.00152012 4.29212 0.61739 2.8074 1.71245 1.71238C2.8075 0.617366 4.29229 0.00152007 5.84093 0H113.279C114.827 0.00152007 116.312 0.617366 117.407 1.71238C118.502 2.8074 119.118 4.29212 119.12 5.84071Z" fill="#007595"/>
<path d="M113.279 0H5.84093C4.29229 0.00152007 2.8075 0.617366 1.71245 1.71238C0.61739 2.8074 0.00152012 4.29212 0 5.84071V82.6549C0.00152012 84.2035 0.61739 85.6882 1.71245 86.7832C2.8075 87.8782 4.29229 88.4941 5.84093 88.4956H113.279C114.827 88.4941 116.312 87.8782 117.407 86.7832C118.502 85.6882 119.118 84.2035 119.12 82.6549V5.84071C119.118 4.29212 118.502 2.8074 117.407 1.71238C116.312 0.617366 114.827 0.00152007 113.279 0ZM118.766 82.6549C118.764 84.1095 118.185 85.504 117.156 86.5325C116.128 87.5611 114.733 88.1397 113.279 88.1416H5.84093C4.38627 88.1397 2.99173 87.5611 1.96313 86.5325C0.934532 85.504 0.355852 84.1095 0.353996 82.6549V5.84071C0.355852 4.38611 0.934532 2.99162 1.96313 1.96306C2.99173 0.934499 4.38627 0.355838 5.84093 0.353982H113.279C114.733 0.355839 116.128 0.9345 117.156 1.96306C118.185 2.99162 118.764 4.38611 118.766 5.84071V82.6549Z" fill="#3F3D56"/>
<path d="M24.0717 13.1861C26.0268 13.1861 27.6117 11.6013 27.6117 9.64627C27.6117 7.69128 26.0268 6.10645 24.0717 6.10645C22.1166 6.10645 20.5317 7.69128 20.5317 9.64627C20.5317 11.6013 22.1166 13.1861 24.0717 13.1861Z" fill="white"/>
<path d="M95.0478 13.1861C97.0028 13.1861 98.5877 11.6013 98.5877 9.64627C98.5877 7.69128 97.0028 6.10645 95.0478 6.10645C93.0927 6.10645 91.5078 7.69128 91.5078 9.64627C91.5078 11.6013 93.0927 13.1861 95.0478 13.1861Z" fill="white"/>
<path d="M34.2995 49.115H13.241C12.3488 49.114 11.4935 48.7592 10.8627 48.1283C10.2318 47.4975 9.87699 46.6423 9.87598 45.7502V35.7975C9.87699 34.9054 10.2318 34.0501 10.8627 33.4193C11.4935 32.7885 12.3488 32.4336 13.241 32.4326H34.2995C35.1916 32.4336 36.047 32.7885 36.6778 33.4193C37.3086 34.0501 37.6635 34.9054 37.6645 35.7975V45.7502C37.6635 46.6423 37.3086 47.4975 36.6778 48.1283C36.047 48.7592 35.1916 49.114 34.2995 49.115Z" fill="#007595"/>
<path d="M70.1237 49.115H49.0652C48.173 49.114 47.3177 48.7592 46.6869 48.1283C46.0561 47.4975 45.7012 46.6423 45.7002 45.7502V35.7975C45.7012 34.9054 46.0561 34.0501 46.6869 33.4193C47.3177 32.7885 48.173 32.4336 49.0652 32.4326H70.1237C71.0159 32.4336 71.8712 32.7885 72.502 33.4193C73.1328 34.0501 73.4877 34.9054 73.4887 35.7975V45.7502C73.4877 46.6423 73.1328 47.4975 72.502 48.1283C71.8712 48.7592 71.0159 49.114 70.1237 49.115Z" fill="#007595"/>
<path d="M70.1236 74.8308H49.0651C48.1459 74.8297 47.2647 74.4641 46.6147 73.8142C45.9648 73.1643 45.5992 72.2831 45.5981 71.3639V61.4112C45.5992 60.492 45.9648 59.6108 46.6147 58.9609C47.2647 58.311 48.1459 57.9454 49.0651 57.9443H70.1236C71.0428 57.9454 71.9241 58.311 72.574 58.9609C73.224 59.6108 73.5896 60.492 73.5906 61.4112V71.3639C73.5896 72.2831 73.224 73.1643 72.574 73.8142C71.9241 74.4641 71.0428 74.8297 70.1236 74.8308Z" fill="#007595" fill-opacity="0.11"/>
<path d="M34.2306 74.8308H13.172C12.2529 74.8297 11.3716 74.4641 10.7217 73.8142C10.0717 73.1643 9.70611 72.2831 9.70508 71.3639V61.4112C9.70611 60.492 10.0717 59.6108 10.7217 58.9609C11.3716 58.311 12.2529 57.9454 13.172 57.9443H34.2306C35.1497 57.9454 36.031 58.311 36.6809 58.9609C37.3309 59.6108 37.6965 60.492 37.6975 61.4112V71.3639C37.6965 72.2831 37.3309 73.1643 36.6809 73.8142C36.031 74.4641 35.1497 74.8297 34.2306 74.8308Z" fill="#007595" fill-opacity="0.11"/>
<path d="M105.948 74.8308H84.8893C83.9701 74.8297 83.0889 74.4641 82.4389 73.8142C81.789 73.1643 81.4234 72.2831 81.4224 71.3639V61.4112C81.4234 60.492 81.789 59.6108 82.4389 58.9609C83.0889 58.311 83.9701 57.9454 84.8893 57.9443H105.948C106.867 57.9454 107.748 58.311 108.398 58.9609C109.048 59.6108 109.414 60.492 109.415 61.4112V71.3639C109.414 72.2831 109.048 73.1643 108.398 73.8142C107.748 74.4641 106.867 74.8297 105.948 74.8308Z" fill="#007595" fill-opacity="0.11"/>
<path d="M105.948 49.1354H84.8893C83.9701 49.1344 83.0889 48.7688 82.4389 48.1189C81.789 47.469 81.4234 46.5878 81.4224 45.6686V35.7158C81.4234 34.7967 81.789 33.9155 82.4389 33.2656C83.0889 32.6156 83.9701 32.2501 84.8893 32.249H105.948C106.867 32.2501 107.748 32.6156 108.398 33.2656C109.048 33.9155 109.414 34.7967 109.415 35.7158V45.6686C109.414 46.5878 109.048 47.469 108.398 48.1189C107.748 48.7688 106.867 49.1344 105.948 49.1354Z" fill="#007595" fill-opacity="0.11"/>
<path d="M23.7703 46.4846C26.924 46.4846 29.4806 43.9281 29.4806 40.7745C29.4806 37.6209 26.924 35.0645 23.7703 35.0645C20.6166 35.0645 18.0601 37.6209 18.0601 40.7745C18.0601 43.9281 20.6166 46.4846 23.7703 46.4846Z" fill="white"/>
<path d="M23.2043 42.9521C23.0759 42.9523 22.9508 42.9108 22.848 42.8337L22.8416 42.8289L21.4997 41.8015C21.4374 41.7539 21.3852 41.6946 21.3459 41.6268C21.3067 41.559 21.2811 41.4841 21.2708 41.4065C21.2605 41.3288 21.2656 41.2499 21.2858 41.1742C21.306 41.0985 21.3409 41.0275 21.3886 40.9653C21.4362 40.9031 21.4957 40.851 21.5635 40.8118C21.6313 40.7726 21.7062 40.7471 21.7839 40.7369C21.8616 40.7266 21.9405 40.7318 22.0162 40.7521C22.0918 40.7724 22.1628 40.8073 22.2249 40.8551L23.0941 41.5215L25.1482 38.8428C25.1959 38.7807 25.2553 38.7285 25.3231 38.6894C25.3908 38.6502 25.4657 38.6247 25.5433 38.6145C25.6209 38.6043 25.6998 38.6094 25.7754 38.6296C25.8511 38.6499 25.922 38.6848 25.9841 38.7325L25.9713 38.7498L25.9844 38.7327C26.1098 38.829 26.1918 38.9711 26.2125 39.1278C26.2331 39.2845 26.1908 39.443 26.0948 39.5686L23.6787 42.7194C23.6228 42.792 23.5509 42.8508 23.4687 42.8911C23.3864 42.9315 23.296 42.9523 23.2043 42.9521Z" fill="#007595"/>
<path d="M59.6961 46.4025C62.8498 46.4025 65.4064 43.8461 65.4064 40.6925C65.4064 37.5389 62.8498 34.9824 59.6961 34.9824C56.5424 34.9824 53.9858 37.5389 53.9858 40.6925C53.9858 43.8461 56.5424 46.4025 59.6961 46.4025Z" fill="white"/>
<path d="M59.1302 42.87C59.0017 42.8703 58.8766 42.8287 58.7738 42.7517L58.7674 42.7469L57.4255 41.7195C57.3 41.6233 57.2178 41.4812 57.1971 41.3245C57.1763 41.1677 57.2187 41.0092 57.3148 40.8837C57.411 40.7582 57.5531 40.676 57.7099 40.6552C57.8666 40.6345 58.0252 40.6769 58.1507 40.773L59.0199 41.4395L61.074 38.7608C61.1217 38.6986 61.1811 38.6465 61.2489 38.6073C61.3167 38.5682 61.3915 38.5427 61.4691 38.5325C61.5467 38.5222 61.6256 38.5274 61.7013 38.5476C61.7769 38.5678 61.8478 38.6028 61.9099 38.6504L61.8971 38.6678L61.9102 38.6507C62.0356 38.747 62.1176 38.8891 62.1383 39.0458C62.1589 39.2025 62.1166 39.361 62.0206 39.4865L59.6045 42.6374C59.5486 42.71 59.4767 42.7687 59.3945 42.8091C59.3122 42.8494 59.2218 42.8703 59.1302 42.87Z" fill="#007595"/>
<path d="M98.2893 67.6371C98.4768 67.432 98.6172 67.1882 98.7004 66.923C98.7836 66.6578 98.8076 66.3775 98.7707 66.102C98.7339 65.8265 98.6371 65.5624 98.4872 65.3283C98.3372 65.0943 98.1378 64.896 97.9029 64.7473L94.7149 47.7256L90.8379 49.1632L95.1907 65.443C94.9671 65.8541 94.9021 66.333 95.008 66.7888C95.1139 67.2447 95.3834 67.6458 95.7653 67.9163C96.1473 68.1867 96.6152 68.3077 97.0803 68.2562C97.5455 68.2048 97.9757 67.9845 98.2893 67.6371Z" fill="#A0616A"/>
<path d="M67.3528 41.6637C67.3624 41.7694 67.3637 41.8757 67.3567 41.9816L74.895 47.7833L77.0327 46.9055L78.7792 49.9584L75.1458 51.8802C74.8523 52.0354 74.5163 52.0913 74.1883 52.0393C73.8603 51.9874 73.5581 51.8305 73.3269 51.5921L65.7919 43.8241C65.393 43.9141 64.9762 43.8805 64.5969 43.7278C64.2177 43.5751 63.8938 43.3105 63.6686 42.9693C63.4433 42.6281 63.3273 42.2264 63.3359 41.8176C63.3445 41.4089 63.4774 41.0124 63.7168 40.681C63.9563 40.3496 64.2909 40.0989 64.6763 39.9623C65.0617 39.8258 65.4796 39.8097 65.8743 39.9164C66.269 40.0231 66.6219 40.2474 66.886 40.5596C67.1501 40.8717 67.3129 41.2568 67.3528 41.6637Z" fill="#A0616A"/>
<path d="M84.964 97.8497H82.7941L81.7617 91.25L84.9645 91.2502L84.964 97.8497Z" fill="#A0616A"/>
<path d="M85.5173 99.9526L78.5205 99.9523V99.8639C78.5205 99.5062 78.5909 99.1521 78.7278 98.8217C78.8647 98.4913 79.0653 98.1911 79.3182 97.9382C79.571 97.6853 79.8713 97.4847 80.2017 97.3479C80.5321 97.211 80.8862 97.1406 81.2439 97.1406L85.5175 97.1408L85.5173 99.9526Z" fill="#2F2E41"/>
<path d="M93.1061 97.8497H90.9362L89.9038 91.25L93.1066 91.2502L93.1061 97.8497Z" fill="#A0616A"/>
<path d="M93.6594 99.9526L86.6626 99.9523V99.8639C86.6626 99.5062 86.733 99.1521 86.8699 98.8217C87.0067 98.4913 87.2074 98.1911 87.4602 97.9382C87.7131 97.6853 88.0134 97.4847 88.3438 97.3479C88.6742 97.211 89.0283 97.1406 89.386 97.1406L93.6595 97.1408L93.6594 99.9526Z" fill="#2F2E41"/>
<path d="M82.3437 96.5448C82.1456 96.5449 81.9545 96.4711 81.808 96.3378C81.6615 96.2045 81.5701 96.0212 81.5516 95.824L79.6606 70.3922L79.75 70.385L92.7631 69.3154L92.7666 69.4079L93.801 95.7531C93.805 95.8602 93.7874 95.9669 93.7492 96.067C93.711 96.167 93.653 96.2583 93.5787 96.3355C93.5044 96.4126 93.4153 96.4739 93.3167 96.5158C93.2182 96.5577 93.1122 96.5793 93.0051 96.5793H90.4535C90.2631 96.5802 90.0786 96.5125 89.934 96.3884C89.7895 96.2644 89.6944 96.0924 89.6663 95.904L86.2014 74.6217C86.198 74.5997 86.1865 74.5798 86.1691 74.566C86.1517 74.5521 86.1297 74.5453 86.1075 74.5469C86.0853 74.5485 86.0646 74.5584 86.0494 74.5747C86.0342 74.5909 86.0256 74.6123 86.0254 74.6345L85.8683 95.6475C85.8666 95.8505 85.7877 96.0452 85.6475 96.1919C85.5073 96.3386 85.3164 96.4264 85.1137 96.4373L82.3864 96.5435C82.3721 96.5444 82.3578 96.5448 82.3437 96.5448Z" fill="#2F2E41"/>
<path d="M84.5645 38.2528C86.9655 38.2528 88.9118 36.3065 88.9118 33.9057C88.9118 31.5048 86.9655 29.5586 84.5645 29.5586C82.1636 29.5586 80.2173 31.5048 80.2173 33.9057C80.2173 36.3065 82.1636 38.2528 84.5645 38.2528Z" fill="#A0616A"/>
<path d="M85.4063 72.0146C83.5062 72.0089 81.6153 71.7505 79.7833 71.2462C79.607 71.1948 79.4538 71.0843 79.3495 70.9332C79.2452 70.7821 79.1961 70.5997 79.2106 70.4167C79.7958 61.6214 79.9334 54.796 78.7028 50.0735C78.1783 48.0607 78.4164 45.9409 79.3561 44.2576C80.7703 41.7243 83.3696 40.1825 86.1422 40.2357C86.2747 40.2382 86.4085 40.2429 86.5437 40.2499C90.7514 40.4665 94.0302 44.273 93.8527 48.7352L93.0063 70.0039C93.0032 70.1591 92.9542 70.3099 92.8656 70.4373C92.7769 70.5646 92.6524 70.6629 92.508 70.7197C90.2376 71.5738 87.832 72.0124 85.4063 72.0146Z" fill="#3F3D56"/>
<path d="M79.4181 51.7066L76.1618 47.7164C76.0692 47.6029 76.0021 47.4707 75.9651 47.3289C75.9281 47.1871 75.9222 47.039 75.9476 46.8947C75.973 46.7504 76.0293 46.6133 76.1125 46.4927C76.1957 46.372 76.3039 46.2708 76.4298 46.1958L80.8409 43.5674C81.4244 43.0966 82.1709 42.8764 82.9166 42.9551C83.6623 43.0338 84.3463 43.405 84.8187 43.9874C85.2911 44.5697 85.5133 45.3155 85.4365 46.0614C85.3597 46.8073 84.9903 47.4922 84.4092 47.9661L80.9617 51.749C80.863 51.8572 80.7421 51.943 80.6072 52.0003C80.4724 52.0576 80.3267 52.0852 80.1803 52.0812C80.0338 52.0772 79.8899 52.0417 79.7583 51.977C79.6268 51.9124 79.5108 51.8201 79.4181 51.7066Z" fill="#3F3D56"/>
<path d="M89.6617 51.2055C89.528 51.1456 89.4087 51.0576 89.312 50.9475C89.2154 50.8373 89.1437 50.7076 89.1017 50.5672L87.6358 45.6636C87.3176 44.9846 87.2817 44.2071 87.5359 43.5017C87.7902 42.7962 88.3139 42.2204 88.9921 41.9005C89.6703 41.5806 90.4478 41.5428 91.1539 41.7953C91.86 42.0478 92.4371 42.57 92.7587 43.2474L95.5936 47.5286C95.6745 47.6508 95.7281 47.7889 95.7508 47.9337C95.7734 48.0785 95.7646 48.2264 95.725 48.3675C95.6853 48.5086 95.6157 48.6394 95.5209 48.7512C95.4261 48.8629 95.3083 48.9529 95.1756 49.015L90.511 51.1984C90.3783 51.2606 90.2337 51.2934 90.0871 51.2947C89.9406 51.2959 89.7955 51.2655 89.6617 51.2055Z" fill="#3F3D56"/>
<path d="M86.7129 37.4722L83.4904 36.7347C83.158 36.6586 82.7587 36.5135 82.7126 36.1756C82.6506 35.7216 83.304 35.4053 83.2438 34.9511C83.1854 34.5112 82.5902 34.4545 82.1658 34.3246C81.7705 34.1859 81.4447 33.8989 81.2573 33.5243C81.0699 33.1497 81.0357 32.7169 81.1618 32.3175C80.7026 32.9645 79.6535 33.02 79.0579 32.4957C78.4623 31.9715 78.3481 31.0203 78.7057 30.312C78.899 29.9641 79.1716 29.6668 79.5014 29.4441C79.8312 29.2214 80.209 29.0797 80.6039 29.0305C81.3979 28.9405 82.2007 29.0902 82.9089 29.4602C82.9561 28.9588 83.5823 28.7555 84.0859 28.751C85.1323 28.7632 86.1488 29.1012 86.994 29.7181C87.8392 30.335 88.4711 31.2 88.8017 32.1928C89.4198 34.1843 89.0064 36.3674 87.277 37.5326L86.7129 37.4722Z" fill="#2F2E41"/>
<path d="M119.17 100H51.7341C51.6872 100 51.6422 99.9818 51.609 99.9486C51.5758 99.9154 51.5571 99.8704 51.5571 99.8235C51.5571 99.7765 51.5758 99.7315 51.609 99.6983C51.6422 99.6651 51.6872 99.6465 51.7341 99.6465H119.17C119.217 99.6465 119.262 99.6651 119.295 99.6983C119.329 99.7315 119.347 99.7765 119.347 99.8235C119.347 99.8704 119.329 99.9154 119.295 99.9486C119.262 99.9818 119.217 100 119.17 100Z" fill="#3F3D56"/>
</g>
<defs>
<clipPath id="clip0_759_3885">
<rect width="151" height="100" fill="white"/>
</clipPath>
</defs>
</svg>
